<svg id="Layer_1" data-name="Layer 1" xmlns="http://www.w3.org/2000/svg" viewBox="0 0 512 512"><defs><style>.cls-1{fill:#ffefd6;}.cls-2{fill:#e2a379;}.cls-3{fill:#d89d75;}.cls-4{fill:#333;}.cls-5{fill:#3d3c3c;}.cls-6{fill:#b3233b;}.cls-7{fill:#f4b382;}.cls-8{fill:#d6876b;}.cls-9{fill:#cc785e;}.cls-10{fill:#602f0f;}.cls-11{fill:#4c230c;}</style></defs><title>bow pose</title><path class="cls-1" d="M7.92,256C7.92,119,119,7.92,256,7.92S504.08,119,504.08,256,393,504.08,256,504.08,7.92,393,7.92,256Z"/><path class="cls-2" d="M197,212.71c-1.71,3.34,13.25,8.86,17,11.92l6.22.29c29.77,17.91,45.88,22.91,45.88,22.91,17.32,11.51,52,28.28,59.54,30.66s14-12.26,7.23-16.45-13.23-7.08-20.26-10.67-34-12.38-40.5-14.9l-47.91-19.09a19.68,19.68,0,0,1-4.2-3.53c-3.34-3.52-9.66-6.36-13.8-6.52A10.45,10.45,0,0,0,197,212.71Z"/><path class="cls-2" d="M210.41,221s-4.25-2.67-5.9-.55c-1.38,1.77-1.67,2.52,9.48,4.16C214,224.64,214.53,223.23,210.41,221Z"/><path class="cls-3" d="M248.63,183c2.7,3.12-8.72,16.35-9.37,19.44-.33,1.54.63,4-1.29,6.86-2.52,3.82-7,3.81-7.8,5.21-4.26,7.18-14.61,21.83-19.87,30.44q-1.82,3-3.9,6c-5.61,8.22-18.76-8.37-16.44-11.13,9.29-11.06,31.41-31.19,35.21-34.79,0,0,9.55-12.78,12.09-15.57C238.79,187.83,245.93,179.92,248.63,183Z"/><path class="cls-4" d="M183.62,278.49c7.93-8.41,17.14-19.26,22.76-27.48-3.36-.92-14.54-8.62-16.42-11.12-2.31,2.75-38.43,34.46-37.79,45.32.68,11.3,54.86,33.34,66.57,37.72s16.48,5.65,41.42,6.65c2.07-6.16,10-1.77,5.1-19.27C259.21,288.73,183.62,278.49,183.62,278.49Z"/><path class="cls-5" d="M265.11,296.47c-2.12-1.08-10.17-5.67-14.83-6.67-13.58-2.91-23.67,7.83-23.67,7.83s-10.32,25.17-3.67,28.06c10.73,4.67,32.38,3.92,39,4,4.52,0,10.58-18.35,10.58-18.35S267.22,297.54,265.11,296.47Z"/><path class="cls-2" d="M238,183c2.7,3.12-8.72,16.35-9.37,19.44-.33,1.54.63,4-1.29,6.86-2.52,3.82-7,3.81-7.8,5.21-4.26,7.18-14.61,21.83-19.87,30.44q-1.82,3-3.9,6c-5.61,8.22-18.76-8.37-16.44-11.13,9.29-11.06,31.41-31.19,35.21-34.79,0,0,9.55-12.78,12.09-15.57C228.13,187.83,235.26,179.92,238,183Z"/><path class="cls-5" d="M173,278.49c7.93-8.41,17.14-19.26,22.76-27.48-3.36-.92-14.54-8.62-16.42-11.12-2.31,2.75-38.43,34.46-37.79,45.32.68,11.3,54.86,33.34,66.57,37.72s16.48,5.65,41.42,6.65c2.07-6.16,10-1.77,5.1-19.27C248.54,288.73,173,278.49,173,278.49Z"/><path class="cls-6" d="M344.54,298.52c6.38-10.49-2.08-21.08-5.25-36.16-.62-1.74-7-7.09-10.93-7.68-4.36-.65-9.11-.2-12.23,3.12-2.93,2.44-6.38,8.62-17.2,29-5.41,10.21-23.43,12.17-33.8,9.62a151.86,151.86,0,0,1-.42,16.71,118.44,118.44,0,0,1-2.85,16.46c44.1-.67,60.43-6.67,71-25.37C332.88,304.27,342.39,302,344.54,298.52Z"/><path class="cls-2" d="M341.26,263.08a52.67,52.67,0,0,1,6.92-15.25l-11-7.78c-1.9,8.16-11.71,14.53-11.71,14.53,11.36,5.39,13,11.54,15.12,14.4Z"/><path class="cls-7" d="M365.4,239.26c5.46-3.29,5.18-9,4.63-12.35-1.68-10.48-6.89-13.56-14-16.4-9.44-3.76-22.92,19.69-23.76,24.2-2.2,11.75,11.15,22,17.24,24.63,6.7,2.89,5.92-.12,6.79-2.91,0-.11.53-.37.53-.37a8,8,0,0,1,2-3.2,9.78,9.78,0,0,1,.24-1.4c.1-.3.2-.48.59-.47a7.79,7.79,0,0,0,2.73-.15C364.07,250,362.86,240.79,365.4,239.26Z"/><path class="cls-8" d="M354.24,252.42s.49.65,3.56,1.9c.45,0,1.27-.17,1.05-1.24C358.69,252.28,356.54,253,354.24,252.42Z"/><path class="cls-9" d="M354.24,252.42s0,1.81,2.56,3.65a1.14,1.14,0,0,0,1-.24,1.05,1.05,0,0,0,0-1.51C354.74,253.07,354.24,252.42,354.24,252.42Z"/><path class="cls-10" d="M356,208.67c-11.52-4.59-33.46,5.9-25.56,31.69.53,1.72,2.32,4.23,7,3a23.26,23.26,0,0,0,6-2.71c.81-.56,1.68-1.17,2.61-1.84s2.54-6.71,3.78-6.42c12,2.72,19.19-1.35,20.39-4.37C371.69,220.23,368.26,213.56,356,208.67Z"/><path class="cls-7" d="M342.78,236.54c-.32,5.79,1.72,6.88,4.87,7.83l1.45-8.62-.28-3.8C345.68,231,343.1,230.74,342.78,236.54Z"/><path class="cls-11" d="M331,219c-1.78-3.37,1.69-8.43,7.72-11.31s12.37-2.48,14.14.89-1.48,6.95-7.52,9.82S332.75,222.37,331,219Z"/><path class="cls-10" d="M350.46,234a13.31,13.31,0,0,1,.83-2.51,10.41,10.41,0,0,1,.82-1.54l-3.83-.13c-.2.48-.4,1-.59,1.48l1.12.07h-.1a18.1,18.1,0,0,1,.15,4.24S349.8,237.11,350.46,234Z"/><path class="cls-10" d="M329.22,217.92c-1.87-3.55,2-9,8.59-12.13s13.49-2.82,15.36.73-1.73,7.4-8.34,10.55S331.08,221.48,329.22,217.92Z"/><path class="cls-11" d="M335.19,208.45c-.21-.39,1.26-1.49,3.28-2.46s3.83-1.42,4-1-1.07,1.24-3.08,2.2S335.39,208.85,335.19,208.45Z"/><path class="cls-7" d="M185.63,225c-1.28,3.52,14.26,7.13,18.38,9.69l6.21-.49c31.79,14,47.91,17.29,47.91,17.29,18.63,9.25,55.58,21.23,63.39,22.64s12.37-13.93,5.11-17.23-14-5.37-21.44-8-35.8-7.69-42.53-9.38c-.93-.23-49.45-13.25-49.45-13.25a19.65,19.65,0,0,1-4.61-3c-3.76-3.07-10.38-5.1-14.5-4.73A10.45,10.45,0,0,0,185.63,225Z"/><path class="cls-7" d="M200,231.52s-4.55-2.11-5.92.2c-1.15,1.93-1.34,2.71,9.93,2.94C204,234.66,204.39,233.19,200,231.52Z"/></svg>